<svg xmlns="http://www.w3.org/2000/svg" width="256" height="256"><g transform="translate(-373.642 -318.344)"><path fill="#A8EBFF" d="M583.659 328.849H419.625c-19.599 0-35.487 15.888-35.487 35.487v164.015c0 19.599 15.888 35.486 35.487 35.486h164.033c19.599 0 35.487-15.888 35.487-35.486V364.337c.001-19.599-15.888-35.488-35.486-35.488z"/><linearGradient id="a" gradientUnits="userSpaceOnUse" x1="-899.778" y1="287.973" x2="-951.474" y2="137.285" gradientTransform="rotate(180 -44.155 232.321) scale(.5915)"><stop offset="0" stop-color="#fff"/><stop offset="1" stop-color="#fff" stop-opacity="0"/></linearGradient><path fill="url(#a)" d="M557.056 338.895H446.227c-29.336 0-52.955 23.81-52.955 53.385v108.127c.95 23.086 4.603 8.491 11.555-17.075 8.081-29.713 34.396-55.682 66.445-75.145 24.461-14.855 51.84-24.341 101.679-25.244 28.265-.511 25.77-36.683-15.895-44.048z"/><path fill="#00C3FF" d="M506.982 404.133c0 25.384-20.804 45.963-46.467 45.963s-46.467-20.579-46.467-45.963 20.804-45.962 46.467-45.962 46.467 20.578 46.467 45.962zm74.752 78.287c0 25.384-20.805 45.962-46.467 45.962-25.664 0-46.468-20.578-46.468-45.962 0-25.385 20.804-45.962 46.468-45.962 25.662 0 46.467 20.577 46.467 45.962z"/><path fill="#00C3FF" d="M578.703 442.014c0 45.189-35.729 81.822-79.802 81.822s-79.802-36.633-79.802-81.822 35.729-81.822 79.802-81.822 79.802 36.633 79.802 81.822z"/><path fill="none" stroke="#FFF" stroke-width="23" stroke-linecap="round" d="M531.731 410.699c-9.05-9.342-19.685-14.506-32.325-16.163-11.584-.575-27.216 4.729-28.285 19.193-.916 15.696 8.749 21.047 29.295 26.264 17.763 4.64 34.399 7.71 33.335 25.253-.377 15.747-15.618 22.79-32.325 22.224-16.549-.758-27.077-9.137-33.335-17.173"/></g></svg>